<svg width="141" height="41" viewBox="0 0 141 41" fill="none" xmlns="http://www.w3.org/2000/svg">
<path d="M11.2864 16.1577C10.5732 16.1577 10 16.7436 10 17.4569C10 18.1701 10.5859 18.756 11.2864 18.756C11.9869 18.756 12.5856 18.1701 12.5856 17.4569C12.5728 16.7436 12.0124 16.1577 11.2864 16.1577Z" fill="white"/>
<path d="M26.4047 4.57985C21.4628 -0.349294 12.5853 -1.31729 6.64991 2.37638C2.24297 5.1148 0.5235 9.36889 0.0267646 14.4509C-0.457234 24.0035 5.68191 33.7217 13.6679 39.2622C16.5974 41.3001 16.8648 39.224 16.2153 38.5489C14.8397 37.1351 11.7319 33.3141 11.2988 31.9512C10.4073 29.0218 11.5281 27.1367 14.5722 27.1877C16.3808 27.2259 18.2277 27.124 19.9981 26.7801C24.8381 25.8376 28.4553 23.2647 29.9201 18.3738C31.4739 13.1262 30.2894 8.45184 26.4047 4.57985ZM14.7378 18.0936C14.6104 18.8069 14.292 19.4182 13.7825 19.9404C13.4259 20.3098 11.5026 22.2203 11.2861 22.4369C11.2734 22.4496 11.2606 22.4623 11.2479 22.4751C11.2352 22.4623 11.2224 22.4496 11.2097 22.4369C10.3945 21.6217 9.56664 20.7938 8.73874 19.9659C8.66232 19.8895 8.5859 19.8131 8.52222 19.7367C8.06369 19.1762 7.79622 18.5521 7.7198 17.8261C7.68159 17.4822 7.69432 17.1383 7.75801 16.8072C7.92359 15.992 8.31843 15.3042 8.94253 14.7693C9.51569 14.2853 10.178 14.0178 10.9295 13.9414C11.2606 13.9159 11.6045 13.9287 11.9229 13.9924C12.7636 14.1707 13.4768 14.5782 14.0118 15.2406C14.6741 16.0939 14.9034 17.0492 14.7378 18.0936ZM17.1068 17.8771C17.0177 14.6419 14.534 12.1455 11.2861 12.0564C9.75769 12.0181 9.75769 9.6491 11.2861 9.70005C15.8204 9.82741 19.3485 13.33 19.4631 17.8771C19.5141 19.3928 17.145 19.3928 17.1068 17.8771ZM21.501 17.3167C21.3609 12.12 17.3488 8.10795 12.1522 7.96784C10.6238 7.92963 10.6238 5.56058 12.1522 5.61153C18.648 5.77711 23.6918 10.8336 23.8573 17.3167C23.8955 18.8323 21.5392 18.8323 21.501 17.3167Z" fill="white"/>
<path d="M40.122 9.71265V18.6284L44.287 14.2979H48.2099L43.6756 18.7303L48.7321 26.3469H44.7328L41.4212 20.9592L40.1475 22.182V26.3214H36.8359V9.71265H40.122Z" fill="white"/>
<path d="M52.5781 9.71265V26.3342H49.2793V9.71265H52.5781Z" fill="white"/>
<path d="M54.5649 17.7116C54.8579 16.9347 55.2782 16.2596 55.8131 15.7119C56.3608 15.1643 56.9977 14.7312 57.7746 14.4383C58.5261 14.1453 59.3922 13.9797 60.3347 13.9797C61.2772 13.9797 62.1306 14.1326 62.9075 14.4383C63.6718 14.7312 64.3341 15.1643 64.8817 15.7119C65.4294 16.2596 65.8497 16.9219 66.13 17.7116C66.4229 18.4886 66.5757 19.3674 66.5757 20.3227C66.5757 21.2907 66.4229 22.1568 66.13 22.921C65.837 23.6979 65.4167 24.3602 64.8817 24.9207C64.3341 25.4683 63.6845 25.9014 62.9075 26.1816C62.1433 26.4745 61.2772 26.6274 60.3347 26.6274C59.3922 26.6274 58.5388 26.4745 57.7746 26.1816C57.0231 25.8887 56.3608 25.4683 55.8131 24.9207C55.2655 24.3602 54.8451 23.7107 54.5649 22.921C54.272 22.144 54.1191 21.2779 54.1191 20.3227C54.1191 19.3674 54.2592 18.4886 54.5649 17.7116ZM57.5581 21.7365C57.6472 22.195 57.8001 22.6026 58.0293 22.9719C58.2586 23.3286 58.5515 23.6342 58.9209 23.838C59.2903 24.0546 59.7615 24.1564 60.322 24.1564C60.8824 24.1564 61.3536 24.0418 61.7358 23.838C62.1179 23.6088 62.4235 23.3286 62.6401 22.9719C62.8566 22.6153 63.0222 22.195 63.1113 21.7365C63.2132 21.2779 63.2514 20.8067 63.2514 20.3227C63.2514 19.8387 63.2005 19.3674 63.1113 18.9089C63.0094 18.4376 62.8693 18.03 62.6401 17.6734C62.4108 17.3168 62.1051 17.0238 61.7358 16.8073C61.3664 16.578 60.8951 16.4762 60.322 16.4762C59.7615 16.4762 59.2903 16.5908 58.9209 16.8073C58.5515 17.0366 58.2459 17.3295 58.0293 17.6734C57.8001 18.03 57.6472 18.4376 57.5581 18.9089C57.4562 19.3674 57.418 19.8514 57.418 20.3227C57.4307 20.7939 57.4562 21.2779 57.5581 21.7365Z" fill="white"/>
<path d="M76.1672 26.3344V24.6659H76.0908C75.6705 25.3664 75.1228 25.8632 74.4605 26.1816C73.7854 26.4873 73.1104 26.6528 72.4099 26.6528C71.531 26.6528 70.7923 26.5382 70.2319 26.3089C69.6587 26.0797 69.2129 25.7485 68.8945 25.3155C68.5761 24.8952 68.3341 24.3729 68.2067 23.7488C68.0666 23.1375 68.0029 22.4624 68.0029 21.711V14.3109H71.3145V21.0996C71.3145 22.0931 71.4673 22.8318 71.7858 23.3158C72.0914 23.7998 72.6391 24.0418 73.4288 24.0418C74.3331 24.0418 74.9827 23.7743 75.3903 23.2394C75.7979 22.7044 76.0016 21.8256 76.0016 20.6029V14.2854H79.3132V26.3217L76.1672 26.3344Z" fill="white"/>
<path d="M89.6681 24.8058C89.286 25.4681 88.7766 25.9266 88.1397 26.2195C87.5029 26.4998 86.8024 26.6526 86.0127 26.6526C85.1084 26.6526 84.3314 26.4743 83.6436 26.1304C82.9558 25.7865 82.4082 25.3152 81.9624 24.7039C81.5166 24.1052 81.1982 23.4302 80.9562 22.6405C80.7269 21.8636 80.625 21.0484 80.625 20.2205C80.625 19.4181 80.7396 18.6284 80.9562 17.8769C81.1854 17.1255 81.5166 16.4632 81.9624 15.8773C82.4082 15.3041 82.9686 14.8328 83.6181 14.4889C84.2932 14.1451 85.0574 13.9667 85.949 13.9667C86.6622 13.9667 87.3373 14.1196 87.9869 14.4253C88.6365 14.7182 89.1459 15.164 89.5153 15.7626H89.5662V9.71265H92.8778V26.3342H89.7318V24.793L89.6681 24.8058ZM89.528 18.8449C89.4389 18.3864 89.286 17.9916 89.044 17.6349C88.8148 17.291 88.5346 16.9981 88.1779 16.7816C87.8213 16.565 87.3755 16.4632 86.8278 16.4632C86.2801 16.4632 85.8216 16.5778 85.4523 16.7816C85.0829 17.0108 84.7772 17.291 84.5607 17.6477C84.3314 18.0043 84.1786 18.4119 84.0767 18.8704C83.9748 19.3289 83.9238 19.8002 83.9238 20.2969C83.9238 20.7682 83.9748 21.2267 84.0894 21.698C84.204 22.1692 84.3696 22.5768 84.6116 22.9462C84.8409 23.3028 85.1593 23.6085 85.5159 23.825C85.8726 24.0543 86.3184 24.1562 86.8278 24.1562C87.3755 24.1562 87.8213 24.0416 88.1907 23.8378C88.5473 23.6085 88.853 23.3283 89.0568 22.9717C89.2733 22.615 89.4261 22.1947 89.528 21.7362C89.6299 21.2649 89.6681 20.7937 89.6681 20.2969C89.6681 19.7747 89.6172 19.3035 89.528 18.8449Z" fill="white"/>
<path d="M97.4251 23.3408C97.5779 23.5956 97.7563 23.8121 97.9983 23.9777C98.2275 24.1433 98.495 24.2579 98.8007 24.3343C99.0936 24.4107 99.4248 24.4489 99.7432 24.4489C99.9725 24.4489 100.227 24.4235 100.469 24.3598C100.724 24.3088 100.966 24.2197 101.17 24.105C101.386 23.9904 101.552 23.8376 101.692 23.6338C101.832 23.43 101.908 23.2007 101.908 22.9078C101.908 22.4111 101.577 22.0417 100.915 21.787C100.253 21.5322 99.3229 21.2902 98.1511 21.0482C97.6671 20.9336 97.1958 20.819 96.7373 20.6661C96.2788 20.5133 95.8712 20.335 95.5146 20.0802C95.158 19.851 94.865 19.5325 94.6485 19.1759C94.4319 18.8193 94.3301 18.3735 94.3301 17.8385C94.3301 17.0616 94.4829 16.4248 94.7886 15.928C95.0943 15.4313 95.4891 15.0364 95.9858 14.7562C96.4826 14.476 97.043 14.2722 97.6544 14.1449C98.2785 14.0302 98.9026 13.9666 99.5649 13.9666C100.227 13.9666 100.851 14.0302 101.463 14.1576C102.074 14.285 102.634 14.4888 103.106 14.7944C103.59 15.0874 103.985 15.4822 104.303 15.9662C104.621 16.4502 104.812 17.0743 104.876 17.8131H101.743C101.692 17.1762 101.463 16.7432 101.03 16.5266C100.597 16.2974 100.087 16.1955 99.4885 16.1955C99.2974 16.1955 99.1064 16.2082 98.8771 16.2337C98.6478 16.2592 98.4695 16.3101 98.2785 16.3865C98.1001 16.463 97.9473 16.5776 97.8199 16.7177C97.6926 16.8578 97.6289 17.0616 97.6289 17.3163C97.6289 17.6093 97.7435 17.8513 97.9473 18.0296C98.1766 18.2206 98.444 18.3608 98.8007 18.4881C99.1446 18.6028 99.5394 18.7174 99.9979 18.7938C100.444 18.883 100.902 18.9976 101.374 19.0995C101.858 19.2141 102.316 19.3287 102.787 19.4943C103.246 19.6472 103.653 19.851 103.997 20.1184C104.354 20.3732 104.647 20.6916 104.851 21.0737C105.067 21.4558 105.169 21.9271 105.169 22.4875C105.169 23.2772 105.004 23.9395 104.698 24.4872C104.379 25.0221 103.972 25.4552 103.462 25.7736C102.953 26.092 102.354 26.334 101.705 26.4614C101.042 26.6015 100.38 26.6651 99.6923 26.6651C98.9917 26.6651 98.3039 26.5887 97.6416 26.4486C96.9666 26.3085 96.3807 26.0793 95.8585 25.7481C95.3363 25.4297 94.9159 24.9966 94.5848 24.4617C94.2536 23.9267 94.0626 23.2644 94.0371 22.4493H97.1704C97.2086 22.7804 97.2723 23.0861 97.4251 23.3408Z" fill="white"/>
<path d="M109.588 14.298V15.8391H109.639C110.047 15.1768 110.556 14.7055 111.18 14.4126C111.805 14.1196 112.48 13.9668 113.231 13.9668C114.174 13.9668 114.989 14.1451 115.677 14.5017C116.364 14.8584 116.925 15.3296 117.371 15.9283C117.816 16.5269 118.148 17.2019 118.377 17.9916C118.593 18.7686 118.695 19.5965 118.695 20.4498C118.695 21.2522 118.581 22.0419 118.377 22.7807C118.148 23.5194 117.829 24.1817 117.383 24.7676C116.938 25.3408 116.39 25.7993 115.74 26.1432C115.078 26.4743 114.314 26.6527 113.422 26.6527C112.683 26.6527 111.996 26.4998 111.359 26.1941C110.722 25.9012 110.212 25.4554 109.805 24.8568H109.754V30.5629H106.442V14.298H109.588ZM113.881 23.8506C114.25 23.6213 114.543 23.3538 114.76 22.9972C114.989 22.6533 115.142 22.2457 115.231 21.7745C115.333 21.3032 115.371 20.8319 115.371 20.3607C115.371 19.8767 115.32 19.4054 115.218 18.9342C115.116 18.4629 114.951 18.0553 114.721 17.6987C114.492 17.342 114.186 17.0364 113.83 16.8198C113.473 16.5906 113.027 16.4887 112.492 16.4887C111.945 16.4887 111.486 16.6033 111.13 16.8198C110.773 17.0491 110.467 17.3421 110.251 17.6859C110.021 18.0426 109.869 18.4502 109.767 18.9214C109.678 19.3799 109.627 19.8639 109.627 20.3607C109.627 20.8447 109.678 21.3159 109.779 21.7745C109.881 22.2457 110.034 22.6406 110.276 22.9972C110.505 23.3411 110.798 23.634 111.168 23.8506C111.537 24.0671 111.983 24.169 112.518 24.169C113.066 24.169 113.524 24.0543 113.881 23.8506Z" fill="white"/>
<path d="M120.045 17.7114C120.338 16.9344 120.759 16.2594 121.294 15.7117C121.841 15.164 122.478 14.731 123.255 14.438C124.007 14.1451 124.873 13.9795 125.828 13.9795C126.77 13.9795 127.637 14.1323 128.401 14.438C129.165 14.731 129.827 15.164 130.375 15.7117C130.923 16.2594 131.343 16.9217 131.623 17.7114C131.916 18.4883 132.069 19.3672 132.069 20.3224C132.069 21.2904 131.916 22.1565 131.623 22.9207C131.33 23.6977 130.91 24.36 130.375 24.9204C129.827 25.4681 129.178 25.9011 128.401 26.1814C127.637 26.4743 126.77 26.6271 125.828 26.6271C124.885 26.6271 124.032 26.4743 123.255 26.1814C122.504 25.8884 121.841 25.4681 121.294 24.9204C120.746 24.36 120.326 23.7104 120.045 22.9207C119.752 22.1438 119.6 21.2777 119.6 20.3224C119.6 19.3672 119.74 18.4883 120.045 17.7114ZM123.039 21.7362C123.128 22.1947 123.281 22.6023 123.51 22.9717C123.739 23.3283 124.032 23.634 124.401 23.8378C124.771 24.0543 125.242 24.1562 125.802 24.1562C126.363 24.1562 126.834 24.0416 127.216 23.8378C127.598 23.6085 127.904 23.3283 128.121 22.9717C128.35 22.615 128.503 22.1947 128.592 21.7362C128.694 21.2777 128.732 20.8064 128.732 20.3224C128.732 19.8384 128.681 19.3672 128.592 18.9086C128.49 18.4374 128.35 18.0298 128.121 17.6732C127.891 17.3165 127.598 17.0236 127.216 16.8071C126.834 16.5778 126.363 16.4759 125.802 16.4759C125.242 16.4759 124.771 16.5905 124.401 16.8071C124.032 17.0363 123.726 17.3293 123.51 17.6732C123.281 18.0298 123.128 18.4374 123.039 18.9086C122.937 19.3672 122.898 19.8512 122.898 20.3224C122.911 20.7937 122.962 21.2777 123.039 21.7362Z" fill="white"/>
<path d="M140.106 14.2981V16.5016H137.686V22.4497C137.686 23.0101 137.775 23.3795 137.954 23.5705C138.145 23.7616 138.514 23.8507 139.075 23.8507C139.266 23.8507 139.431 23.838 139.61 23.8253C139.788 23.8125 139.941 23.787 140.094 23.7488V26.3217C139.813 26.3726 139.495 26.3981 139.164 26.4108C138.82 26.4236 138.489 26.4363 138.158 26.4363C137.648 26.4363 137.164 26.3981 136.706 26.3344C136.247 26.258 135.852 26.1179 135.496 25.9268C135.152 25.723 134.871 25.4428 134.668 25.0607C134.464 24.6914 134.375 24.2074 134.375 23.596V16.4889H132.362V14.2854H134.375V10.6936H137.686V14.2981H140.106Z" fill="white"/>
</svg>
