<svg width="82" height="98" viewBox="0 0 82 98" fill="none" xmlns="http://www.w3.org/2000/svg">
<g filter="url(#filter0_d_4595_26826)">
<path d="M4 23C4 10.2975 14.2975 0 27 0H55C67.7025 0 78 10.2974 78 23V50.1956C78 62.8982 67.7025 73.1957 55 73.1957H49.88L41 89.7867L31.6267 73.1957H27C14.2975 73.1957 4 62.8982 4 50.1957V23Z" fill="white"/>
<rect x="11" y="8" width="60" height="58" rx="16" fill="#18468B"/>
<path d="M56 49.869V38.1483C56.0005 37.9249 55.9352 37.707 55.8132 37.5254C55.6911 37.3437 55.5186 37.2075 55.32 37.1361L50 35.2501V24.2966C50.0077 24.056 49.9388 23.8198 49.8044 23.6263C49.6701 23.4328 49.4782 23.2935 49.26 23.2311L38.26 20.0345C38.0438 19.9744 37.815 19.9932 37.61 20.0878L30.61 23.2843C30.4245 23.368 30.267 23.5094 30.1581 23.69C30.0493 23.8706 29.9942 24.082 30 24.2966V49.869H28V52H58V49.869H56ZM54 38.9155V49.869H53V44.5414H51V49.869H50V37.4983L54 38.9155ZM44.5 49.869H42.5V42.7087L44.5 43.2415V49.869ZM45.74 41.3448L41.74 40.2793C41.5924 40.2394 41.4382 40.236 41.2892 40.2692C41.1401 40.3024 41.0002 40.3715 40.88 40.4711C40.7608 40.5715 40.6647 40.6994 40.5988 40.8453C40.533 40.9911 40.4992 41.151 40.5 41.3129V49.837H39V35.2821L48 37.8926V49.869H46.5V42.4104C46.5067 42.167 46.4349 41.9285 46.2966 41.7346C46.1583 41.5407 45.9619 41.4032 45.74 41.3448ZM32 29.2619L37 26.9817V28.9209L32 31.2011V29.2619ZM39 31.02L48 33.6305V35.687L39 33.0764V31.02ZM48 31.4249L39 28.8144V26.7579L48 29.3684V31.4249ZM32 33.5559L37 31.2757V33.215L32 35.4632V33.5559ZM48 27.1628L39 24.5523V22.4959L48 25.1064V27.1628ZM37 22.7196V24.6589L32 26.9391V24.9998L37 22.7196ZM32 37.786L37 35.5058V49.869H35.5V40.2793H33.5V49.869H32V37.786Z" fill="white"/>
</g>
<defs>
<filter id="filter0_d_4595_26826" x="0" y="0" width="82" height="97.7866" filterUnits="userSpaceOnUse" color-interpolation-filters="sRGB">
<feFlood flood-opacity="0" result="BackgroundImageFix"/>
<feColorMatrix in="SourceAlpha" type="matrix" values="0 0 0 0 0 0 0 0 0 0 0 0 0 0 0 0 0 0 127 0" result="hardAlpha"/>
<feOffset dy="4"/>
<feGaussianBlur stdDeviation="2"/>
<feComposite in2="hardAlpha" operator="out"/>
<feColorMatrix type="matrix" values="0 0 0 0 0 0 0 0 0 0 0 0 0 0 0 0 0 0 0.25 0"/>
<feBlend mode="normal" in2="BackgroundImageFix" result="effect1_dropShadow_4595_26826"/>
<feBlend mode="normal" in="SourceGraphic" in2="effect1_dropShadow_4595_26826" result="shape"/>
</filter>
</defs>
</svg>
