<svg width="10" height="6" viewBox="0 0 10 6" fill="none" xmlns="http://www.w3.org/2000/svg">
<path d="M1.40256 0.703518C1.48382 0.811101 1.72643 1.13226 1.87091 1.3174C2.16029 1.68821 2.5557 2.18094 2.98224 2.6722C3.41093 3.16595 3.86127 3.64681 4.26135 4.0003C4.46196 4.17756 4.63818 4.31224 4.7836 4.39991C4.92037 4.48236 5.00116 4.4995 5.00116 4.4995C5.00116 4.4995 5.07957 4.48236 5.21634 4.39991C5.36175 4.31225 5.53798 4.17756 5.73859 4.00031C6.13866 3.64681 6.589 3.16594 7.0177 2.67219C7.44423 2.18093 7.83964 1.68819 8.12902 1.31738C8.27351 1.13224 8.51577 0.81153 8.59703 0.703946C8.76079 0.481598 9.07412 0.43364 9.29647 0.597395C9.51882 0.76115 9.56632 1.07415 9.40256 1.2965L9.40129 1.29819C9.31606 1.41103 9.06479 1.7437 8.91737 1.93261C8.62145 2.3118 8.2145 2.81907 7.7728 3.3278C7.33325 3.83405 6.84947 4.35319 6.40072 4.74969C6.17692 4.94743 5.95006 5.12525 5.73262 5.25633C5.5289 5.37914 5.27097 5.5 4.99996 5.49999C4.72896 5.49999 4.47103 5.37914 4.26731 5.25633C4.04987 5.12524 3.82301 4.94743 3.59921 4.74969C3.15047 4.35319 2.66669 3.83406 2.22714 3.32781C1.78544 2.81908 1.37848 2.31182 1.08256 1.93264C0.93504 1.7436 0.683757 1.41091 0.598705 1.29831L0.597605 1.29685C0.433848 1.0745 0.481112 0.761186 0.70346 0.597429C0.9258 0.433678 1.2388 0.481189 1.40256 0.703518Z" fill="#1A1A1A"/>
</svg>
