<svg width="19" height="18" viewBox="0 0 19 18" fill="none" xmlns="http://www.w3.org/2000/svg">
<path d="M9.06217 0.9375C5.02371 0.937634 1.74967 4.2115 1.74967 8.25C1.74967 12.2885 5.02371 15.5624 9.06217 15.5625C10.8793 15.5625 12.5401 14.8978 13.819 13.8008L16.9147 16.8975C17.1344 17.1171 17.4909 17.1171 17.7106 16.8975C17.9298 16.6779 17.9298 16.3221 17.7106 16.1025L14.6149 13.0059C15.7112 11.7271 16.3747 10.0665 16.3747 8.25C16.3747 4.21142 13.1008 0.9375 9.06217 0.9375ZM9.06217 2.0625C12.4794 2.0625 15.2497 4.83274 15.2497 8.25C15.2497 11.6673 12.4794 14.4375 9.06217 14.4375C5.64503 14.4374 2.87467 11.6672 2.87467 8.25C2.87467 4.83282 5.64503 2.06263 9.06217 2.0625Z" fill="#666666"/>
</svg>
